<svg width="42" height="49" viewBox="0 0 42 49" fill="none" xmlns="http://www.w3.org/2000/svg">
<path d="M40.4076 20.7226C40.4076 23.1725 39.281 26.0841 37.3889 29.1885C35.5166 32.2604 32.9972 35.3569 30.4418 38.1382C27.8918 40.9137 25.3368 43.3423 23.4169 45.0785C22.5041 45.904 21.737 46.571 21.1851 47.0423C20.6331 46.571 19.8661 45.904 18.9533 45.0785C17.0333 43.3423 14.4784 40.9137 11.9284 38.1382C9.37301 35.3569 6.85357 32.2604 4.98127 29.1885C3.08915 26.0841 1.96252 23.1725 1.96252 20.7226C1.96252 10.1062 10.5688 1.5 21.1851 1.5C31.8014 1.5 40.4076 10.1062 40.4076 20.7226Z" stroke="#47093E" stroke-width="3"/>
<path d="M15.7653 28.6349L21.5618 13.564L27.3583 28.6349" stroke="#47093E" stroke-width="3" stroke-linejoin="bevel"/>
<path d="M17.4739 23.6926H25.6494" stroke="#47093E" stroke-width="3" stroke-linejoin="bevel"/>
</svg>
